<?xml version="1.0" encoding="UTF-8" standalone="no"?>
<!-- Generator: Adobe Illustrator 16.0.0, SVG Export Plug-In . SVG Version: 6.00 Build 0)  -->

<svg
   xmlns:dc="http://purl.org/dc/elements/1.1/"
   xmlns:cc="http://creativecommons.org/ns#"
   xmlns:rdf="http://www.w3.org/1999/02/22-rdf-syntax-ns#"
   xmlns:svg="http://www.w3.org/2000/svg"
   xmlns="http://www.w3.org/2000/svg"
   xmlns:sodipodi="http://sodipodi.sourceforge.net/DTD/sodipodi-0.dtd"
   xmlns:inkscape="http://www.inkscape.org/namespaces/inkscape"
   version="1.1"
   id="Capa_1"
   x="0px"
   y="0px"
   width="107.112px"
   height="107.112px"
   viewBox="0 0 107.112 107.112"
   style="enable-background:new 0 0 107.112 107.112;"
   xml:space="preserve"
   sodipodi:docname="new-moon-phase-circle.svg"
   inkscape:version="0.92.2 5c3e80d, 2017-08-06"><metadata
     id="metadata43"><rdf:RDF><cc:Work
         rdf:about=""><dc:format>image/svg+xml</dc:format><dc:type
           rdf:resource="http://purl.org/dc/dcmitype/StillImage" /></cc:Work></rdf:RDF></metadata><defs
     id="defs41" /><sodipodi:namedview
     pagecolor="#ffffff"
     bordercolor="#666666"
     borderopacity="1"
     objecttolerance="10"
     gridtolerance="10"
     guidetolerance="10"
     inkscape:pageopacity="0"
     inkscape:pageshadow="2"
     inkscape:window-width="727"
     inkscape:window-height="480"
     id="namedview39"
     showgrid="false"
     inkscape:zoom="2.2033012"
     inkscape:cx="68.98739"
     inkscape:cy="53.556"
     inkscape:window-x="0"
     inkscape:window-y="0"
     inkscape:window-maximized="0"
     inkscape:current-layer="Capa_1" /><g
     id="g6"
     style="fill:#ffe680"><path
       d="M53.556,107.112C24.025,107.112,0,83.087,0,53.556S24.025,0,53.556,0s53.556,24.025,53.556,53.556   S83.087,107.112,53.556,107.112z M53.556,0.75C24.439,0.75,0.75,24.439,0.75,53.556c0,29.118,23.689,52.806,52.806,52.806   c29.118,0,52.806-23.688,52.806-52.806C106.362,24.439,82.674,0.75,53.556,0.75z"
       id="path2"
       style="fill:#ffe680" /><path
       d="M53.556,107.112C24.025,107.112,0,83.087,0,53.556S24.025,0,53.556,0s53.556,24.025,53.556,53.556   S83.087,107.112,53.556,107.112z M53.556,0.75C24.439,0.75,0.75,24.439,0.75,53.556c0,29.118,23.689,52.806,52.806,52.806   c29.118,0,52.806-23.688,52.806-52.806C106.362,24.439,82.674,0.75,53.556,0.75z"
       id="path4"
       style="fill:#ffe680" /></g><g
     id="g8" /><g
     id="g10" /><g
     id="g12" /><g
     id="g14" /><g
     id="g16" /><g
     id="g18" /><g
     id="g20" /><g
     id="g22" /><g
     id="g24" /><g
     id="g26" /><g
     id="g28" /><g
     id="g30" /><g
     id="g32" /><g
     id="g34" /><g
     id="g36" /></svg>